<svg width="32" height="32" viewBox="0 0 32 32" fill="none" xmlns="http://www.w3.org/2000/svg">
  <defs>
    <linearGradient id="g" x1="4" y1="4" x2="28" y2="28" gradientUnits="userSpaceOnUse">
      <stop stop-color="#FFD873"/>
      <stop offset="1" stop-color="#E0993A"/>
    </linearGradient>
  </defs>
  <rect width="32" height="32" rx="8" fill="#06070D"/>
  <path d="M9 22V10h5.4c2.4 0 3.9 1.1 3.9 3 0 1.3-.7 2.2-1.9 2.6 1.5.3 2.4 1.4 2.4 2.9 0 2.1-1.6 3.5-4.2 3.5H9Zm2.8-7.1h2c1 0 1.6-.5 1.6-1.3 0-.8-.6-1.3-1.6-1.3h-2v2.6Zm0 4.9h2.2c1.1 0 1.7-.5 1.7-1.4 0-.9-.6-1.4-1.7-1.4h-2.2v2.8Z" fill="url(#g)"/>
  <circle cx="23" cy="11" r="2.3" fill="#FFD873"/>
</svg>
